<?xml version="1.0" standalone="no"?>
<!DOCTYPE svg PUBLIC "-//W3C//DTD SVG 20010904//EN"
 "http://www.w3.org/TR/2001/REC-SVG-20010904/DTD/svg10.dtd">
<svg version="1.0" xmlns="http://www.w3.org/2000/svg"
 width="32.000000pt" height="32.000000pt" viewBox="0 0 32.000000 32.000000"
 preserveAspectRatio="xMidYMid meet">

<g transform="translate(0.000000,32.000000) scale(0.100000,-0.100000)"
fill="#000000" stroke="none">
<path d="M105 296 c-102 -44 -122 -172 -40 -245 64 -56 147 -50 204 14 53 61
50 143 -7 198 -48 46 -102 57 -157 33z m127 -23 c47 -23 72 -91 56 -149 -35
-129 -221 -130 -256 0 -20 70 15 137 83 161 42 14 72 11 117 -12z"/>
<path d="M135 268 c-3 -8 -4 -61 -3 -119 3 -104 3 -104 28 -104 l25 0 0 115
c0 112 -1 115 -23 118 -12 2 -24 -3 -27 -10z"/>
<path d="M95 256 c-18 -13 -18 -14 3 -25 20 -11 22 -9 22 14 0 29 0 29 -25 11z"/>
<path d="M200 245 c0 -23 2 -24 20 -15 11 6 20 13 20 15 0 2 -9 9 -20 15 -18
9 -20 8 -20 -15z"/>
<path d="M70 215 c7 -8 20 -15 29 -15 13 1 13 3 -3 15 -26 19 -42 19 -26 0z"/>
<path d="M226 215 c-16 -12 -17 -15 -4 -15 8 0 21 7 28 15 16 19 1 19 -24 0z"/>
<path d="M44 175 c-11 -28 4 -45 41 -45 32 0 35 2 35 30 0 28 -3 30 -35 30
-22 0 -38 -6 -41 -15z"/>
<path d="M200 160 c0 -30 2 -31 38 -28 32 3 37 6 37 28 0 22 -5 25 -37 28 -36
3 -38 2 -38 -28z"/>
<path d="M70 105 c-16 -19 0 -19 26 0 16 12 16 14 3 15 -9 0 -22 -7 -29 -15z"/>
<path d="M226 105 c25 -19 40 -19 24 0 -7 8 -20 15 -28 15 -13 0 -12 -3 4 -15z"/>
<path d="M95 86 c-18 -13 -18 -14 3 -25 20 -11 22 -9 22 14 0 29 0 29 -25 11z"/>
<path d="M200 75 c0 -23 2 -24 20 -15 11 6 20 13 20 15 0 2 -9 9 -20 15 -18 9
-20 8 -20 -15z"/>
</g>
</svg>
